<?xml version="1.0" encoding="UTF-8" standalone="no"?>
<!DOCTYPE svg PUBLIC "-//W3C//DTD SVG 1.1//EN" "http://www.w3.org/Graphics/SVG/1.1/DTD/svg11.dtd">
<svg width="100%" height="100%" viewBox="0 0 305 100" version="1.1" xmlns="http://www.w3.org/2000/svg" xmlns:xlink="http://www.w3.org/1999/xlink" xml:space="preserve" xmlns:serif="http://www.serif.com/" style="fill-rule:evenodd;clip-rule:evenodd;stroke-linejoin:round;stroke-miterlimit:2;">
    <g transform="matrix(1,0,0,1,0,-20)">
        <g transform="matrix(0.993463,0,0,1,0.000169575,20.0001)">
            <g id="EDteam-logo">
                <g transform="matrix(1.0001,0,0,0.995859,0.72574,-0.793021)">
                    <path d="M112,68.332L112,31.348L136.976,31.348L136.976,38.339L120.325,38.339L120.325,45.597L135.108,45.597L135.108,52.428L120.325,52.428L120.325,61.341L138.204,61.341L138.204,68.332L112,68.332Z" style="fill:rgb(42,59,71);fill-rule:nonzero;"/>
                    <path d="M152.666,61.554C153.058,61.59 153.511,61.616 154.027,61.634C154.543,61.652 155.157,61.661 155.868,61.661C160.031,61.661 163.117,60.611 165.127,58.512C167.138,56.413 168.143,53.513 168.143,49.813C168.143,45.935 167.182,43 165.261,41.008C163.34,39.015 160.298,38.019 156.135,38.019C155.566,38.019 154.979,38.028 154.374,38.046C153.769,38.063 153.2,38.108 152.666,38.179L152.666,61.554ZM176.735,49.813C176.735,53.015 176.237,55.808 175.241,58.192C174.244,60.576 172.83,62.55 170.998,64.116C169.166,65.681 166.933,66.855 164.3,67.638C161.667,68.421 158.714,68.812 155.441,68.812C153.947,68.812 152.204,68.75 150.211,68.625C148.219,68.501 146.262,68.243 144.341,67.851L144.341,31.828C146.262,31.473 148.263,31.232 150.345,31.108C152.426,30.983 154.214,30.921 155.708,30.921C158.875,30.921 161.748,31.277 164.327,31.988C166.906,32.7 169.121,33.821 170.971,35.351C172.821,36.88 174.244,38.837 175.241,41.221C176.237,43.605 176.735,46.469 176.735,49.813Z" style="fill:rgb(42,59,71);fill-rule:nonzero;"/>
                    <path d="M182.872,33.269L190.824,31.988L190.824,40.26L200.377,40.26L200.377,46.878L190.824,46.878L190.824,56.751C190.824,58.423 191.118,59.757 191.705,60.754C192.292,61.75 193.475,62.248 195.254,62.248C196.107,62.248 196.988,62.168 197.895,62.008C198.802,61.848 199.63,61.625 200.377,61.341L201.498,67.531C200.537,67.923 199.47,68.261 198.295,68.545C197.121,68.83 195.68,68.972 193.973,68.972C191.802,68.972 190.006,68.679 188.583,68.092C187.159,67.505 186.021,66.686 185.167,65.637C184.313,64.587 183.717,63.315 183.379,61.821C183.041,60.327 182.872,58.672 182.872,56.858L182.872,33.269Z" style="fill:rgb(42,59,71);fill-rule:nonzero;"/>
                    <path d="M204.433,54.51C204.433,52.019 204.815,49.84 205.58,47.972C206.345,46.104 207.35,44.548 208.595,43.302C209.841,42.057 211.273,41.114 212.892,40.474C214.51,39.833 216.174,39.513 217.881,39.513C221.866,39.513 225.015,40.732 227.327,43.169C229.64,45.606 230.796,49.191 230.796,53.923C230.796,54.385 230.779,54.892 230.743,55.443C230.707,55.995 230.672,56.484 230.636,56.911L212.598,56.911C212.776,58.548 213.541,59.846 214.893,60.807C216.245,61.768 218.059,62.248 220.336,62.248C221.795,62.248 223.227,62.114 224.632,61.848C226.038,61.581 227.185,61.252 228.075,60.86L229.142,67.318C228.715,67.531 228.146,67.745 227.434,67.958C226.723,68.172 225.931,68.358 225.059,68.519C224.188,68.679 223.254,68.812 222.258,68.919C221.261,69.026 220.265,69.079 219.269,69.079C216.743,69.079 214.546,68.705 212.678,67.958C210.81,67.211 209.263,66.188 208.035,64.89C206.808,63.591 205.9,62.052 205.313,60.273C204.726,58.494 204.433,56.573 204.433,54.51ZM223.111,51.468C223.076,50.792 222.96,50.133 222.765,49.493C222.569,48.853 222.266,48.283 221.857,47.785C221.448,47.287 220.932,46.878 220.31,46.558C219.687,46.238 218.913,46.077 217.988,46.077C217.099,46.077 216.334,46.229 215.693,46.531C215.053,46.834 214.519,47.234 214.092,47.732C213.665,48.23 213.336,48.808 213.105,49.466C212.874,50.125 212.705,50.792 212.598,51.468L223.111,51.468Z" style="fill:rgb(42,59,71);fill-rule:nonzero;"/>
                    <path d="M247.661,62.782C248.443,62.782 249.19,62.764 249.902,62.728C250.614,62.693 251.183,62.639 251.61,62.568L251.61,56.538C251.29,56.466 250.809,56.395 250.169,56.324C249.528,56.253 248.941,56.217 248.408,56.217C247.661,56.217 246.958,56.262 246.3,56.351C245.641,56.44 245.063,56.609 244.565,56.858C244.067,57.107 243.676,57.445 243.391,57.872C243.106,58.299 242.964,58.832 242.964,59.473C242.964,60.718 243.382,61.581 244.218,62.061C245.054,62.541 246.202,62.782 247.661,62.782ZM247.02,39.513C249.368,39.513 251.325,39.78 252.891,40.314C254.456,40.847 255.71,41.612 256.653,42.609C257.596,43.605 258.263,44.814 258.654,46.238C259.046,47.661 259.241,49.244 259.241,50.987L259.241,67.531C258.103,67.78 256.52,68.074 254.492,68.412C252.464,68.75 250.009,68.919 247.127,68.919C245.312,68.919 243.667,68.759 242.19,68.439C240.714,68.118 239.442,67.594 238.375,66.864C237.307,66.135 236.489,65.183 235.92,64.009C235.35,62.835 235.066,61.394 235.066,59.686C235.066,58.05 235.395,56.662 236.053,55.524C236.711,54.385 237.592,53.478 238.695,52.802C239.798,52.126 241.061,51.637 242.484,51.334C243.907,51.032 245.384,50.881 246.913,50.881C247.945,50.881 248.861,50.925 249.662,51.014C250.462,51.103 251.112,51.219 251.61,51.361L251.61,50.614C251.61,49.262 251.201,48.177 250.382,47.358C249.564,46.54 248.141,46.131 246.113,46.131C244.761,46.131 243.427,46.229 242.11,46.424C240.794,46.62 239.655,46.896 238.695,47.252L237.681,40.847C238.143,40.705 238.721,40.554 239.415,40.394C240.109,40.234 240.865,40.091 241.683,39.967C242.502,39.842 243.364,39.736 244.272,39.647C245.179,39.558 246.095,39.513 247.02,39.513Z" style="fill:rgb(42,59,71);fill-rule:nonzero;"/>
                    <path d="M281.869,53.442C281.869,50.881 281.54,49.066 280.882,47.999C280.224,46.931 279.094,46.398 277.493,46.398C276.995,46.398 276.479,46.424 275.945,46.478C275.412,46.531 274.896,46.593 274.398,46.665L274.398,68.332L266.446,68.332L266.446,41.221C267.122,41.043 267.914,40.856 268.821,40.661C269.728,40.465 270.689,40.287 271.703,40.127C272.717,39.967 273.757,39.842 274.825,39.753C275.892,39.664 276.942,39.62 277.973,39.62C280.001,39.62 281.647,39.878 282.91,40.394C284.173,40.91 285.214,41.523 286.032,42.235C287.17,41.417 288.478,40.776 289.954,40.314C291.431,39.851 292.792,39.62 294.037,39.62C296.278,39.62 298.12,39.931 299.561,40.554C301.001,41.177 302.149,42.057 303.003,43.196C303.857,44.334 304.444,45.686 304.764,47.252C305.084,48.817 305.244,50.56 305.244,52.482L305.244,68.332L297.292,68.332L297.292,53.442C297.292,50.881 296.963,49.066 296.305,47.999C295.647,46.931 294.517,46.398 292.916,46.398C292.489,46.398 291.893,46.504 291.128,46.718C290.364,46.931 289.732,47.198 289.234,47.518C289.483,48.337 289.643,49.199 289.714,50.107C289.785,51.014 289.821,51.983 289.821,53.015L289.821,68.332L281.869,68.332L281.869,53.442Z" style="fill:rgb(42,59,71);fill-rule:nonzero;"/>
                </g>
                <g transform="matrix(1.00658,0,0,1,1.12306e-06,0)">
                    <path d="M48.421,80.74C37.827,80.092 27.682,73.612 22.75,64.142C18.173,55.354 18.245,44.314 22.923,35.593C28.16,25.831 38.548,19.878 50.046,19.366C50.046,19.366 52.903,19.183 54.81,18.1C60.468,14.885 61.313,5.395 55.232,1.52C53.595,0.477 51.641,-0.006 49.693,0C30.484,0.184 11.909,12.188 4.101,29.997C-2.461,44.966 -1.096,63.119 7.819,77C14.914,88.046 26.485,96.124 39.321,98.917C56.887,102.74 76.344,96.243 88.086,82.544C99.728,68.96 103.285,48.88 96.765,32.023C93.027,22.359 86.404,13.546 77.542,8.244C77.079,7.967 76.594,7.739 76.094,7.557C85.009,15.192 90.661,26.521 90.661,39.157C90.661,62.125 71.99,80.771 48.991,80.771C48.803,80.771 48.784,80.762 48.421,80.74Z" style="fill:rgb(18,146,238);"/>
                </g>
            </g>
        </g>
    </g>
</svg>
